<?xml version="1.0" encoding="iso-8859-1"?>
<!-- Generator: Adobe Illustrator 19.0.0, SVG Export Plug-In . SVG Version: 6.00 Build 0)  -->
<svg xmlns="http://www.w3.org/2000/svg" xmlns:xlink="http://www.w3.org/1999/xlink">
<path style="fill:#9B59B6;" d="M481.095,86.02h-30.905l30.905,77.264H512v-46.358C512,99.928,498.093,86.02,481.095,86.02z"/>
<g>
	<path style="fill:#AF7AC5;" d="M450.189,86.02h-256v77.264h286.905v-46.358C481.095,99.928,467.187,86.02,450.189,86.02z"/>
	<path style="fill:#AF7AC5;" d="M481.095,395.074l-30.905,77.264h30.905c16.998,0,30.905-13.907,30.905-30.905V425.98L481.095,395.074z"/>
</g>
<g>
	<path style="fill:#C39BD3;" d="M481.095,441.433v-46.358L0,425.98v15.453c0,16.998,13.907,30.905,30.905,30.905h419.284C467.187,472.338,481.095,458.431,481.095,441.433z"/>
	<path style="fill:#C39BD3;" d="M481.095,132.378h-30.905l30.905,293.602H512V163.284C512,146.286,498.093,132.378,481.095,132.378z"/>
</g>
<path style="fill:#D7BDE2;" d="M481.095,163.284c0-16.998-13.907-30.905-30.905-30.905H286.905l-44.668-67.002
	c-9.428-14.142-31.051-25.714-48.049-25.714H30.905C13.907,39.662,0,53.569,0,70.567V425.98h481.095V163.284z"/>
</svg>
